<svg width="100" height="100" viewBox="0 0 100 100" fill="none" xmlns="http://www.w3.org/2000/svg">
<g clip-path="url(#clip0_1_2)">
<path d="M34.1996 76.6112V23.3888H45.4522V67.3337H68.2692V76.6112H34.1996ZM50 100C44.4733 100 39.2065 99.1597 34.1996 97.4792C29.21 95.7987 24.6275 93.4252 20.4522 90.3586C16.2942 87.3094 12.6819 83.6972 9.61538 79.5218C6.56618 75.3638 4.20132 70.79 2.52079 65.8004C0.840263 60.7935 0 55.5267 0 50C0 44.4733 0.840263 39.2152 2.52079 34.2256C4.20132 29.2186 6.56618 24.6362 9.61538 20.4782C12.6819 16.3028 16.2942 12.6906 20.4522 9.64137C24.6275 6.57484 29.21 4.20131 34.1996 2.52079C39.2065 0.840263 44.4733 0 50 0C55.5267 0 60.7848 0.840263 65.7744 2.52079C70.7814 4.20131 75.3638 6.57484 79.5218 9.64137C83.6971 12.6906 87.3094 16.3028 90.3586 20.4782C93.4252 24.6362 95.7987 29.2186 97.4792 34.2256C99.1597 39.2152 100 44.4733 100 50C100 55.5267 99.1597 60.7935 97.4792 65.8004C95.7987 70.79 93.4252 75.3638 90.3586 79.5218C87.3094 83.6972 83.6971 87.3094 79.5218 90.3586C75.3638 93.4252 70.7814 95.7987 65.7744 97.4792C60.7848 99.1597 55.5267 100 50 100ZM50 92.5935C54.7124 92.5935 59.1909 91.8746 63.4355 90.4366C67.6975 89.0159 71.6043 86.9976 75.1559 84.3815C78.7075 81.7827 81.7827 78.7075 84.3815 75.1559C86.9976 71.6043 89.0159 67.6975 90.4366 63.4355C91.8746 59.1736 92.5936 54.6951 92.5936 50C92.5936 45.2876 91.8746 40.8091 90.4366 36.5644C89.0159 32.3025 86.9976 28.3957 84.3815 24.8441C81.7827 21.2924 78.7075 18.2173 75.1559 15.6185C71.6043 13.0024 67.6975 10.9841 63.4355 9.56341C59.1909 8.12543 54.7124 7.40644 50 7.40644C45.2876 7.40644 40.8004 8.12543 36.5385 9.56341C32.2765 10.9841 28.3697 13.0024 24.8181 15.6185C21.2838 18.2173 18.2086 21.2924 15.5925 24.8441C12.9938 28.3957 10.9754 32.3025 9.53742 36.5644C8.11677 40.8091 7.40644 45.2876 7.40644 50C7.40644 54.7124 8.11677 59.1996 9.53742 63.4615C10.9754 67.7062 12.9938 71.6043 15.5925 75.1559C18.2086 78.7075 21.2838 81.7827 24.8181 84.3815C28.3697 86.9976 32.2765 89.0159 36.5385 90.4366C40.8004 91.8746 45.2876 92.5935 50 92.5935Z" fill="black"/>
</g>
<defs>
<clipPath id="clip0_1_2">
<rect width="100" height="100" fill="white"/>
</clipPath>
</defs>
</svg>
