<svg width="500" height="500" viewBox="0 0 500 500" fill="none" xmlns="http://www.w3.org/2000/svg">
<path d="M382.75 371.275C376.9 353.275 360.025 340 340 340H317.5V272.5C317.5 266.533 315.129 260.81 310.91 256.59C306.69 252.371 300.967 250 295 250H160V205H205C210.967 205 216.69 202.629 220.91 198.41C225.129 194.19 227.5 188.467 227.5 182.5V137.5H272.5C284.435 137.5 295.881 132.759 304.32 124.32C312.759 115.881 317.5 104.435 317.5 92.5V83.275C383.425 109.825 430 174.4 430 250C430 296.8 412 339.325 382.75 371.275ZM227.5 428.425C138.625 417.4 70 341.8 70 250C70 236.05 71.8 222.55 74.725 209.725L182.5 317.5V340C182.5 351.935 187.241 363.381 195.68 371.82C204.119 380.259 215.565 385 227.5 385M250 25C220.453 25 191.194 30.8198 163.896 42.1271C136.598 53.4344 111.794 70.0078 90.901 90.901C48.7053 133.097 25 190.326 25 250C25 309.674 48.7053 366.903 90.901 409.099C111.794 429.992 136.598 446.566 163.896 457.873C191.194 469.18 220.453 475 250 475C309.674 475 366.903 451.295 409.099 409.099C451.295 366.903 475 309.674 475 250C475 220.453 469.18 191.194 457.873 163.896C446.566 136.598 429.992 111.794 409.099 90.901C388.206 70.0078 363.402 53.4344 336.104 42.1271C308.806 30.8198 279.547 25 250 25V25Z" fill="#FFE551"/>
</svg>
