<svg width="500" height="500" viewBox="0 0 500 500" fill="none" xmlns="http://www.w3.org/2000/svg">
<rect width="500" height="500" fill="#c4c4c4"/>
<path d="M224.525 252.36H263.992V406.795C263.92 420.952 260.917 433.142 254.983 443.367C249.049 453.519 240.755 461.348 230.102 466.854C219.52 472.288 207.187 475.004 193.102 475.004C180.232 475.004 168.649 472.716 158.354 468.141C148.13 463.493 140.015 456.629 134.009 447.549C128.003 438.469 125 427.172 125 413.659H164.574C164.646 419.594 165.933 424.706 168.435 428.996C171.009 433.285 174.548 436.574 179.052 438.862C183.557 441.15 188.74 442.294 194.603 442.294C200.966 442.294 206.365 440.971 210.797 438.326C215.23 435.609 218.591 431.605 220.879 426.314C223.238 421.024 224.454 414.517 224.525 406.795V252.36Z" fill="black"/>
<path d="M307.159 472.002V252.36H389.524C406.398 252.36 420.554 255.291 431.994 261.154C443.505 267.017 452.192 275.239 458.055 285.821C463.989 296.331 466.956 308.593 466.956 322.607C466.956 336.692 463.954 348.918 457.948 359.285C452.013 369.581 443.255 377.553 431.672 383.201C420.09 388.778 405.862 391.566 388.988 391.566H330.324V358.534H383.626C393.492 358.534 401.572 357.176 407.863 354.459C414.155 351.671 418.803 347.631 421.806 342.34C424.88 336.978 426.417 330.4 426.417 322.607C426.417 314.813 424.88 308.164 421.806 302.659C418.731 297.082 414.048 292.864 407.756 290.004C401.464 287.072 393.349 285.607 383.411 285.607H346.947V472.002H307.159ZM420.626 372.476L475 472.002H430.6L377.191 372.476H420.626Z" fill="black"/>
</svg>
